<svg width="738" height="200" viewBox="0 0 738 200" fill="none" xmlns="http://www.w3.org/2000/svg">
<line x1="1.5" y1="10.5" x2="736.5" y2="10.5" stroke="#F2F4F7" stroke-linecap="round"/>
<line x1="1.5" y1="45" x2="736.5" y2="45" stroke="#F2F4F7" stroke-linecap="round"/>
<line x1="1.5" y1="77" x2="736.5" y2="77" stroke="#F2F4F7" stroke-linecap="round"/>
<line x1="1.5" y1="109" x2="736.5" y2="109" stroke="#F2F4F7" stroke-linecap="round"/>
<line x1="1.5" y1="141" x2="736.5" y2="141" stroke="#F2F4F7" stroke-linecap="round"/>
<line x1="1.5" y1="173" x2="736.5" y2="173" stroke="#F2F4F7" stroke-linecap="round"/>
<path d="M29.7493 186.273H30.8061V192.511C30.8061 193.068 30.7038 193.541 30.4993 193.93C30.2947 194.32 30.0064 194.615 29.6342 194.817C29.2621 195.018 28.8232 195.119 28.3175 195.119C27.8402 195.119 27.4155 195.033 27.0433 194.859C26.6712 194.683 26.3786 194.433 26.1655 194.109C25.9524 193.786 25.8459 193.401 25.8459 192.955H26.8857C26.8857 193.202 26.9467 193.418 27.0689 193.602C27.1939 193.784 27.3643 193.926 27.5803 194.028C27.7962 194.131 28.0419 194.182 28.3175 194.182C28.6214 194.182 28.88 194.118 29.093 193.99C29.3061 193.862 29.468 193.675 29.5788 193.428C29.6925 193.178 29.7493 192.872 29.7493 192.511V186.273ZM34.7138 195.153C34.299 195.153 33.9226 195.075 33.5845 194.919C33.2464 194.76 32.978 194.531 32.7791 194.233C32.5803 193.932 32.4808 193.568 32.4808 193.142C32.4808 192.767 32.5547 192.463 32.7024 192.23C32.8501 191.994 33.0476 191.81 33.2947 191.676C33.5419 191.543 33.8146 191.443 34.1129 191.378C34.4141 191.31 34.7166 191.256 35.0206 191.216C35.4183 191.165 35.7408 191.126 35.9879 191.101C36.2379 191.072 36.4197 191.026 36.5334 190.96C36.6499 190.895 36.7081 190.781 36.7081 190.619V190.585C36.7081 190.165 36.593 189.838 36.3629 189.605C36.1357 189.372 35.7905 189.256 35.3274 189.256C34.8473 189.256 34.4709 189.361 34.1982 189.571C33.9254 189.781 33.7337 190.006 33.6229 190.244L32.6683 189.903C32.8388 189.506 33.0661 189.196 33.3501 188.974C33.6371 188.75 33.9496 188.594 34.2876 188.506C34.6286 188.415 34.9638 188.369 35.2933 188.369C35.5036 188.369 35.745 188.395 36.0178 188.446C36.2933 188.494 36.5589 188.595 36.8146 188.749C37.0732 188.902 37.2876 189.134 37.4581 189.443C37.6286 189.753 37.7138 190.168 37.7138 190.688V195H36.7081V194.114H36.657C36.5888 194.256 36.4751 194.408 36.3161 194.57C36.157 194.732 35.9453 194.869 35.6811 194.983C35.4169 195.097 35.0945 195.153 34.7138 195.153ZM34.8672 194.25C35.2649 194.25 35.6001 194.172 35.8729 194.016C36.1484 193.859 36.3558 193.658 36.495 193.411C36.6371 193.163 36.7081 192.903 36.7081 192.631V191.71C36.6655 191.761 36.5717 191.808 36.4268 191.851C36.2848 191.891 36.12 191.926 35.9325 191.957C35.7479 191.986 35.5675 192.011 35.3913 192.034C35.218 192.054 35.0774 192.071 34.9695 192.085C34.7081 192.119 34.4638 192.175 34.2365 192.251C34.0121 192.325 33.8303 192.437 33.6911 192.588C33.5547 192.736 33.4865 192.937 33.4865 193.193C33.4865 193.543 33.6158 193.807 33.8743 193.986C34.1357 194.162 34.4666 194.25 34.8672 194.25ZM40.555 191.062V195H39.5494V188.455H40.521V189.477H40.6062C40.7596 189.145 40.9925 188.878 41.305 188.676C41.6175 188.472 42.021 188.369 42.5153 188.369C42.9585 188.369 43.3462 188.46 43.6786 188.642C44.011 188.821 44.2695 189.094 44.4542 189.46C44.6388 189.824 44.7312 190.284 44.7312 190.841V195H43.7255V190.909C43.7255 190.395 43.592 189.994 43.3249 189.707C43.0579 189.418 42.6914 189.273 42.2255 189.273C41.9045 189.273 41.6175 189.342 41.3647 189.482C41.1147 189.621 40.9173 189.824 40.7724 190.091C40.6275 190.358 40.555 190.682 40.555 191.062Z" fill="#475467"/>
<path d="M86.1476 195V186.273H91.3806V187.21H87.2045V190.159H90.9885V191.097H87.2045V195H86.1476ZM95.3181 195.136C94.6874 195.136 94.1434 194.997 93.686 194.719C93.2314 194.438 92.8806 194.045 92.6334 193.543C92.3891 193.037 92.267 192.449 92.267 191.778C92.267 191.108 92.3891 190.517 92.6334 190.006C92.8806 189.491 93.2243 189.091 93.6647 188.804C94.1079 188.514 94.6249 188.369 95.2158 188.369C95.5567 188.369 95.8934 188.426 96.2258 188.54C96.5582 188.653 96.8607 188.838 97.1334 189.094C97.4062 189.347 97.6235 189.682 97.7854 190.099C97.9474 190.517 98.0283 191.031 98.0283 191.642V192.068H92.9829V191.199H97.0056C97.0056 190.83 96.9317 190.5 96.784 190.21C96.6391 189.92 96.4317 189.692 96.1618 189.524C95.8948 189.357 95.5795 189.273 95.2158 189.273C94.8153 189.273 94.4687 189.372 94.176 189.571C93.8863 189.767 93.6633 190.023 93.507 190.338C93.3508 190.653 93.2726 190.991 93.2726 191.352V191.932C93.2726 192.426 93.3579 192.845 93.5283 193.189C93.7016 193.53 93.9417 193.79 94.2485 193.969C94.5553 194.145 94.9118 194.233 95.3181 194.233C95.5823 194.233 95.8209 194.196 96.034 194.122C96.2499 194.045 96.436 193.932 96.5922 193.781C96.7485 193.628 96.8692 193.437 96.9545 193.21L97.926 193.483C97.8238 193.812 97.6519 194.102 97.4104 194.352C97.1689 194.599 96.8706 194.793 96.5155 194.932C96.1604 195.068 95.7613 195.136 95.3181 195.136ZM99.6945 195V186.273H100.7V189.494H100.785C100.859 189.381 100.962 189.236 101.092 189.06C101.226 188.881 101.416 188.722 101.663 188.582C101.913 188.44 102.251 188.369 102.677 188.369C103.229 188.369 103.714 188.507 104.135 188.783C104.555 189.058 104.883 189.449 105.119 189.955C105.355 190.46 105.473 191.057 105.473 191.744C105.473 192.438 105.355 193.038 105.119 193.547C104.883 194.053 104.557 194.445 104.139 194.723C103.722 194.999 103.24 195.136 102.695 195.136C102.274 195.136 101.937 195.067 101.685 194.928C101.432 194.786 101.237 194.625 101.101 194.446C100.964 194.264 100.859 194.114 100.785 193.994H100.666V195H99.6945ZM100.683 191.727C100.683 192.222 100.756 192.658 100.9 193.036C101.045 193.411 101.257 193.705 101.535 193.918C101.814 194.128 102.155 194.233 102.558 194.233C102.979 194.233 103.329 194.122 103.611 193.901C103.895 193.676 104.108 193.375 104.25 192.997C104.395 192.616 104.467 192.193 104.467 191.727C104.467 191.267 104.396 190.852 104.254 190.483C104.115 190.111 103.903 189.817 103.619 189.601C103.338 189.382 102.984 189.273 102.558 189.273C102.149 189.273 101.805 189.376 101.527 189.584C101.248 189.788 101.038 190.075 100.896 190.445C100.754 190.811 100.683 191.239 100.683 191.727Z" fill="#475467"/>
<path d="M146.287 186.273H147.549L150.515 193.517H150.617L153.583 186.273H154.844V195H153.855V188.369H153.77L151.043 195H150.088L147.361 188.369H147.276V195H146.287V186.273ZM158.753 195.153C158.338 195.153 157.962 195.075 157.624 194.919C157.286 194.76 157.017 194.531 156.818 194.233C156.619 193.932 156.52 193.568 156.52 193.142C156.52 192.767 156.594 192.463 156.741 192.23C156.889 191.994 157.087 191.81 157.334 191.676C157.581 191.543 157.854 191.443 158.152 191.378C158.453 191.31 158.756 191.256 159.06 191.216C159.457 191.165 159.78 191.126 160.027 191.101C160.277 191.072 160.459 191.026 160.572 190.96C160.689 190.895 160.747 190.781 160.747 190.619V190.585C160.747 190.165 160.632 189.838 160.402 189.605C160.175 189.372 159.83 189.256 159.366 189.256C158.886 189.256 158.51 189.361 158.237 189.571C157.964 189.781 157.773 190.006 157.662 190.244L156.707 189.903C156.878 189.506 157.105 189.196 157.389 188.974C157.676 188.75 157.989 188.594 158.327 188.506C158.668 188.415 159.003 188.369 159.332 188.369C159.543 188.369 159.784 188.395 160.057 188.446C160.332 188.494 160.598 188.595 160.854 188.749C161.112 188.902 161.327 189.134 161.497 189.443C161.668 189.753 161.753 190.168 161.753 190.688V195H160.747V194.114H160.696C160.628 194.256 160.514 194.408 160.355 194.57C160.196 194.732 159.984 194.869 159.72 194.983C159.456 195.097 159.134 195.153 158.753 195.153ZM158.906 194.25C159.304 194.25 159.639 194.172 159.912 194.016C160.188 193.859 160.395 193.658 160.534 193.411C160.676 193.163 160.747 192.903 160.747 192.631V191.71C160.705 191.761 160.611 191.808 160.466 191.851C160.324 191.891 160.159 191.926 159.972 191.957C159.787 191.986 159.607 192.011 159.43 192.034C159.257 192.054 159.116 192.071 159.009 192.085C158.747 192.119 158.503 192.175 158.276 192.251C158.051 192.325 157.869 192.437 157.73 192.588C157.594 192.736 157.526 192.937 157.526 193.193C157.526 193.543 157.655 193.807 157.913 193.986C158.175 194.162 158.506 194.25 158.906 194.25ZM163.588 195V188.455H164.56V189.443H164.628C164.748 189.119 164.963 188.857 165.276 188.655C165.588 188.453 165.941 188.352 166.333 188.352C166.407 188.352 166.499 188.354 166.61 188.357C166.721 188.359 166.804 188.364 166.861 188.369V189.392C166.827 189.384 166.749 189.371 166.627 189.354C166.507 189.334 166.381 189.324 166.248 189.324C165.929 189.324 165.645 189.391 165.395 189.524C165.148 189.655 164.952 189.837 164.807 190.07C164.665 190.3 164.594 190.562 164.594 190.858V195H163.588Z" fill="#475467"/>
<path d="M207.744 195H206.636L209.84 186.273H210.931L214.136 195H213.028L210.42 187.653H210.352L207.744 195ZM208.153 191.591H212.619V192.528H208.153V191.591ZM215.359 197.455V188.455H216.331V189.494H216.45C216.524 189.381 216.626 189.236 216.757 189.06C216.89 188.881 217.081 188.722 217.328 188.582C217.578 188.44 217.916 188.369 218.342 188.369C218.893 188.369 219.379 188.507 219.799 188.783C220.22 189.058 220.548 189.449 220.784 189.955C221.019 190.46 221.137 191.057 221.137 191.744C221.137 192.438 221.019 193.038 220.784 193.547C220.548 194.053 220.221 194.445 219.804 194.723C219.386 194.999 218.904 195.136 218.359 195.136C217.938 195.136 217.602 195.067 217.349 194.928C217.096 194.786 216.902 194.625 216.765 194.446C216.629 194.264 216.524 194.114 216.45 193.994H216.365V197.455H215.359ZM216.348 191.727C216.348 192.222 216.42 192.658 216.565 193.036C216.71 193.411 216.921 193.705 217.2 193.918C217.478 194.128 217.819 194.233 218.223 194.233C218.643 194.233 218.994 194.122 219.275 193.901C219.559 193.676 219.772 193.375 219.914 192.997C220.059 192.616 220.132 192.193 220.132 191.727C220.132 191.267 220.061 190.852 219.919 190.483C219.779 190.111 219.568 189.817 219.284 189.601C219.002 189.382 218.649 189.273 218.223 189.273C217.813 189.273 217.47 189.376 217.191 189.584C216.913 189.788 216.703 190.075 216.561 190.445C216.419 190.811 216.348 191.239 216.348 191.727ZM222.671 195V188.455H223.643V189.443H223.711C223.831 189.119 224.046 188.857 224.359 188.655C224.671 188.453 225.024 188.352 225.416 188.352C225.49 188.352 225.582 188.354 225.693 188.357C225.804 188.359 225.887 188.364 225.944 188.369V189.392C225.91 189.384 225.832 189.371 225.71 189.354C225.59 189.334 225.464 189.324 225.331 189.324C225.012 189.324 224.728 189.391 224.478 189.524C224.231 189.655 224.035 189.837 223.89 190.07C223.748 190.3 223.677 190.562 223.677 190.858V195H222.671Z" fill="#475467"/>
<path d="M266.479 186.273H267.74L270.706 193.517H270.808L273.774 186.273H275.036V195H274.047V188.369H273.962L271.234 195H270.28L267.553 188.369H267.467V195H266.479V186.273ZM278.944 195.153C278.529 195.153 278.153 195.075 277.815 194.919C277.477 194.76 277.208 194.531 277.01 194.233C276.811 193.932 276.711 193.568 276.711 193.142C276.711 192.767 276.785 192.463 276.933 192.23C277.081 191.994 277.278 191.81 277.525 191.676C277.772 191.543 278.045 191.443 278.343 191.378C278.645 191.31 278.947 191.256 279.251 191.216C279.649 191.165 279.971 191.126 280.218 191.101C280.468 191.072 280.65 191.026 280.764 190.96C280.88 190.895 280.939 190.781 280.939 190.619V190.585C280.939 190.165 280.824 189.838 280.593 189.605C280.366 189.372 280.021 189.256 279.558 189.256C279.078 189.256 278.701 189.361 278.429 189.571C278.156 189.781 277.964 190.006 277.853 190.244L276.899 189.903C277.069 189.506 277.297 189.196 277.581 188.974C277.868 188.75 278.18 188.594 278.518 188.506C278.859 188.415 279.194 188.369 279.524 188.369C279.734 188.369 279.975 188.395 280.248 188.446C280.524 188.494 280.789 188.595 281.045 188.749C281.304 188.902 281.518 189.134 281.689 189.443C281.859 189.753 281.944 190.168 281.944 190.688V195H280.939V194.114H280.887C280.819 194.256 280.706 194.408 280.547 194.57C280.387 194.732 280.176 194.869 279.912 194.983C279.647 195.097 279.325 195.153 278.944 195.153ZM279.098 194.25C279.495 194.25 279.831 194.172 280.103 194.016C280.379 193.859 280.586 193.658 280.725 193.411C280.868 193.163 280.939 192.903 280.939 192.631V191.71C280.896 191.761 280.802 191.808 280.657 191.851C280.515 191.891 280.35 191.926 280.163 191.957C279.978 191.986 279.798 192.011 279.622 192.034C279.449 192.054 279.308 192.071 279.2 192.085C278.939 192.119 278.694 192.175 278.467 192.251C278.243 192.325 278.061 192.437 277.922 192.588C277.785 192.736 277.717 192.937 277.717 193.193C277.717 193.543 277.846 193.807 278.105 193.986C278.366 194.162 278.697 194.25 279.098 194.25ZM284.193 197.455C284.023 197.455 283.871 197.44 283.737 197.412C283.604 197.386 283.511 197.361 283.46 197.335L283.716 196.449C283.96 196.511 284.176 196.534 284.364 196.517C284.551 196.5 284.717 196.416 284.862 196.266C285.01 196.118 285.145 195.878 285.267 195.545L285.455 195.034L283.034 188.455H284.125L285.932 193.67H286L287.807 188.455H288.898L286.119 195.955C285.994 196.293 285.839 196.572 285.655 196.794C285.47 197.018 285.256 197.185 285.011 197.293C284.77 197.401 284.497 197.455 284.193 197.455Z" fill="#475467"/>
<path d="M333.098 186.273H334.155V192.511C334.155 193.068 334.052 193.541 333.848 193.93C333.643 194.32 333.355 194.615 332.983 194.817C332.611 195.018 332.172 195.119 331.666 195.119C331.189 195.119 330.764 195.033 330.392 194.859C330.02 194.683 329.727 194.433 329.514 194.109C329.301 193.786 329.195 193.401 329.195 192.955H330.234C330.234 193.202 330.295 193.418 330.418 193.602C330.543 193.784 330.713 193.926 330.929 194.028C331.145 194.131 331.391 194.182 331.666 194.182C331.97 194.182 332.229 194.118 332.442 193.99C332.655 193.862 332.817 193.675 332.927 193.428C333.041 193.178 333.098 192.872 333.098 192.511V186.273ZM340.261 192.324V188.455H341.267V195H340.261V193.892H340.193C340.04 194.224 339.801 194.507 339.477 194.74C339.153 194.97 338.744 195.085 338.25 195.085C337.841 195.085 337.477 194.996 337.159 194.817C336.841 194.635 336.591 194.362 336.409 193.999C336.227 193.632 336.136 193.17 336.136 192.614V188.455H337.142V192.545C337.142 193.023 337.275 193.403 337.543 193.688C337.812 193.972 338.156 194.114 338.574 194.114C338.824 194.114 339.078 194.05 339.337 193.922C339.598 193.794 339.817 193.598 339.993 193.334C340.172 193.07 340.261 192.733 340.261 192.324ZM344.115 191.062V195H343.109V188.455H344.081V189.477H344.166C344.319 189.145 344.552 188.878 344.865 188.676C345.177 188.472 345.581 188.369 346.075 188.369C346.518 188.369 346.906 188.46 347.238 188.642C347.571 188.821 347.829 189.094 348.014 189.46C348.198 189.824 348.291 190.284 348.291 190.841V195H347.285V190.909C347.285 190.395 347.152 189.994 346.884 189.707C346.617 189.418 346.251 189.273 345.785 189.273C345.464 189.273 345.177 189.342 344.924 189.482C344.674 189.621 344.477 189.824 344.332 190.091C344.187 190.358 344.115 190.682 344.115 191.062Z" fill="#475467"/>
<path d="M393.276 186.273H394.332V192.511C394.332 193.068 394.23 193.541 394.026 193.93C393.821 194.32 393.533 194.615 393.161 194.817C392.788 195.018 392.35 195.119 391.844 195.119C391.367 195.119 390.942 195.033 390.57 194.859C390.198 194.683 389.905 194.433 389.692 194.109C389.479 193.786 389.372 193.401 389.372 192.955H390.412C390.412 193.202 390.473 193.418 390.595 193.602C390.72 193.784 390.891 193.926 391.107 194.028C391.323 194.131 391.568 194.182 391.844 194.182C392.148 194.182 392.406 194.118 392.619 193.99C392.832 193.862 392.994 193.675 393.105 193.428C393.219 193.178 393.276 192.872 393.276 192.511V186.273ZM400.439 192.324V188.455H401.445V195H400.439V193.892H400.371C400.217 194.224 399.979 194.507 399.655 194.74C399.331 194.97 398.922 195.085 398.428 195.085C398.019 195.085 397.655 194.996 397.337 194.817C397.019 194.635 396.769 194.362 396.587 193.999C396.405 193.632 396.314 193.17 396.314 192.614V188.455H397.32V192.545C397.32 193.023 397.453 193.403 397.72 193.688C397.99 193.972 398.334 194.114 398.752 194.114C399.002 194.114 399.256 194.05 399.514 193.922C399.776 193.794 399.994 193.598 400.171 193.334C400.35 193.07 400.439 192.733 400.439 192.324ZM404.292 186.273V195H403.287V186.273H404.292Z" fill="#475467"/>
<path d="M446.354 195H445.246L448.451 186.273H449.542L452.746 195H451.638L449.03 187.653H448.962L446.354 195ZM446.763 191.591H451.229V192.528H446.763V191.591ZM458.094 192.324V188.455H459.1V195H458.094V193.892H458.026C457.873 194.224 457.634 194.507 457.31 194.74C456.986 194.97 456.577 195.085 456.083 195.085C455.674 195.085 455.31 194.996 454.992 194.817C454.674 194.635 454.424 194.362 454.242 193.999C454.06 193.632 453.969 193.17 453.969 192.614V188.455H454.975V192.545C454.975 193.023 455.108 193.403 455.376 193.688C455.645 193.972 455.989 194.114 456.407 194.114C456.657 194.114 456.911 194.05 457.17 193.922C457.431 193.794 457.65 193.598 457.826 193.334C458.005 193.07 458.094 192.733 458.094 192.324ZM463.584 197.591C463.098 197.591 462.681 197.528 462.331 197.403C461.982 197.281 461.691 197.119 461.458 196.918C461.227 196.719 461.044 196.506 460.908 196.278L461.709 195.716C461.8 195.835 461.915 195.972 462.054 196.125C462.193 196.281 462.384 196.416 462.625 196.53C462.869 196.646 463.189 196.705 463.584 196.705C464.112 196.705 464.548 196.577 464.892 196.321C465.236 196.065 465.408 195.665 465.408 195.119V193.79H465.323C465.249 193.909 465.144 194.057 465.007 194.233C464.874 194.406 464.681 194.561 464.428 194.697C464.178 194.831 463.84 194.898 463.414 194.898C462.885 194.898 462.411 194.773 461.99 194.523C461.573 194.273 461.242 193.909 460.997 193.432C460.756 192.955 460.635 192.375 460.635 191.693C460.635 191.023 460.753 190.439 460.989 189.942C461.225 189.442 461.553 189.055 461.973 188.783C462.394 188.507 462.879 188.369 463.431 188.369C463.857 188.369 464.195 188.44 464.445 188.582C464.698 188.722 464.891 188.881 465.024 189.06C465.161 189.236 465.266 189.381 465.34 189.494H465.442V188.455H466.414V195.188C466.414 195.75 466.286 196.207 466.03 196.56C465.777 196.915 465.436 197.175 465.007 197.339C464.581 197.507 464.107 197.591 463.584 197.591ZM463.55 193.994C463.953 193.994 464.294 193.902 464.573 193.717C464.851 193.533 465.063 193.267 465.208 192.92C465.352 192.574 465.425 192.159 465.425 191.676C465.425 191.205 465.354 190.788 465.212 190.428C465.07 190.067 464.86 189.784 464.581 189.58C464.303 189.375 463.959 189.273 463.55 189.273C463.124 189.273 462.769 189.381 462.485 189.597C462.203 189.812 461.992 190.102 461.85 190.466C461.71 190.83 461.641 191.233 461.641 191.676C461.641 192.131 461.712 192.533 461.854 192.882C461.999 193.229 462.212 193.501 462.493 193.7C462.777 193.896 463.129 193.994 463.55 193.994Z" fill="#475467"/>
<path d="M512.582 188.455C512.531 188.023 512.324 187.688 511.96 187.449C511.597 187.21 511.151 187.091 510.622 187.091C510.236 187.091 509.898 187.153 509.608 187.278C509.321 187.403 509.097 187.575 508.935 187.794C508.776 188.013 508.696 188.261 508.696 188.54C508.696 188.773 508.752 188.973 508.862 189.141C508.976 189.305 509.121 189.443 509.297 189.554C509.473 189.662 509.658 189.751 509.851 189.822C510.044 189.891 510.222 189.946 510.384 189.989L511.27 190.227C511.497 190.287 511.75 190.369 512.028 190.474C512.31 190.58 512.578 190.723 512.834 190.905C513.092 191.084 513.305 191.314 513.473 191.595C513.641 191.876 513.725 192.222 513.725 192.631C513.725 193.102 513.601 193.528 513.354 193.909C513.109 194.29 512.752 194.592 512.28 194.817C511.811 195.041 511.242 195.153 510.571 195.153C509.946 195.153 509.405 195.053 508.948 194.851C508.493 194.649 508.135 194.368 507.874 194.007C507.615 193.646 507.469 193.227 507.435 192.75H508.526C508.554 193.08 508.665 193.352 508.858 193.568C509.054 193.781 509.301 193.94 509.6 194.045C509.901 194.148 510.225 194.199 510.571 194.199C510.975 194.199 511.337 194.134 511.658 194.003C511.979 193.869 512.233 193.685 512.421 193.449C512.608 193.21 512.702 192.932 512.702 192.614C512.702 192.324 512.621 192.088 512.459 191.906C512.297 191.724 512.084 191.577 511.82 191.463C511.555 191.349 511.27 191.25 510.963 191.165L509.889 190.858C509.207 190.662 508.668 190.382 508.27 190.018C507.872 189.655 507.673 189.179 507.673 188.591C507.673 188.102 507.805 187.676 508.07 187.312C508.337 186.946 508.695 186.662 509.144 186.46C509.595 186.256 510.1 186.153 510.656 186.153C511.219 186.153 511.719 186.254 512.156 186.456C512.594 186.655 512.94 186.928 513.196 187.274C513.455 187.621 513.591 188.014 513.605 188.455H512.582ZM518.07 195.136C517.439 195.136 516.895 194.997 516.438 194.719C515.983 194.438 515.633 194.045 515.385 193.543C515.141 193.037 515.019 192.449 515.019 191.778C515.019 191.108 515.141 190.517 515.385 190.006C515.633 189.491 515.976 189.091 516.417 188.804C516.86 188.514 517.377 188.369 517.968 188.369C518.309 188.369 518.645 188.426 518.978 188.54C519.31 188.653 519.613 188.838 519.885 189.094C520.158 189.347 520.375 189.682 520.537 190.099C520.699 190.517 520.78 191.031 520.78 191.642V192.068H515.735V191.199H519.758C519.758 190.83 519.684 190.5 519.536 190.21C519.391 189.92 519.184 189.692 518.914 189.524C518.647 189.357 518.331 189.273 517.968 189.273C517.567 189.273 517.221 189.372 516.928 189.571C516.638 189.767 516.415 190.023 516.259 190.338C516.103 190.653 516.025 190.991 516.025 191.352V191.932C516.025 192.426 516.11 192.845 516.28 193.189C516.454 193.53 516.694 193.79 517 193.969C517.307 194.145 517.664 194.233 518.07 194.233C518.334 194.233 518.573 194.196 518.786 194.122C519.002 194.045 519.188 193.932 519.344 193.781C519.5 193.628 519.621 193.437 519.706 193.21L520.678 193.483C520.576 193.812 520.404 194.102 520.162 194.352C519.921 194.599 519.623 194.793 519.267 194.932C518.912 195.068 518.513 195.136 518.07 195.136ZM522.31 197.455V188.455H523.282V189.494H523.401C523.475 189.381 523.577 189.236 523.708 189.06C523.841 188.881 524.032 188.722 524.279 188.582C524.529 188.44 524.867 188.369 525.293 188.369C525.844 188.369 526.33 188.507 526.75 188.783C527.171 189.058 527.499 189.449 527.735 189.955C527.971 190.46 528.089 191.057 528.089 191.744C528.089 192.438 527.971 193.038 527.735 193.547C527.499 194.053 527.172 194.445 526.755 194.723C526.337 194.999 525.856 195.136 525.31 195.136C524.89 195.136 524.553 195.067 524.3 194.928C524.047 194.786 523.853 194.625 523.716 194.446C523.58 194.264 523.475 194.114 523.401 193.994H523.316V197.455H522.31ZM523.299 191.727C523.299 192.222 523.371 192.658 523.516 193.036C523.661 193.411 523.873 193.705 524.151 193.918C524.429 194.128 524.77 194.233 525.174 194.233C525.594 194.233 525.945 194.122 526.226 193.901C526.51 193.676 526.723 193.375 526.866 192.997C527.01 192.616 527.083 192.193 527.083 191.727C527.083 191.267 527.012 190.852 526.87 190.483C526.731 190.111 526.519 189.817 526.235 189.601C525.954 189.382 525.6 189.273 525.174 189.273C524.765 189.273 524.421 189.376 524.142 189.584C523.864 189.788 523.654 190.075 523.512 190.445C523.37 190.811 523.299 191.239 523.299 191.727Z" fill="#475467"/>
<path d="M576.637 190.636C576.637 191.557 576.471 192.352 576.139 193.023C575.806 193.693 575.35 194.21 574.771 194.574C574.191 194.938 573.529 195.119 572.785 195.119C572.041 195.119 571.379 194.938 570.799 194.574C570.22 194.21 569.764 193.693 569.431 193.023C569.099 192.352 568.933 191.557 568.933 190.636C568.933 189.716 569.099 188.92 569.431 188.25C569.764 187.58 570.22 187.062 570.799 186.699C571.379 186.335 572.041 186.153 572.785 186.153C573.529 186.153 574.191 186.335 574.771 186.699C575.35 187.062 575.806 187.58 576.139 188.25C576.471 188.92 576.637 189.716 576.637 190.636ZM575.615 190.636C575.615 189.881 575.488 189.243 575.235 188.723C574.985 188.203 574.646 187.81 574.217 187.543C573.791 187.276 573.313 187.142 572.785 187.142C572.257 187.142 571.778 187.276 571.349 187.543C570.923 187.81 570.583 188.203 570.33 188.723C570.08 189.243 569.955 189.881 569.955 190.636C569.955 191.392 570.08 192.03 570.33 192.55C570.583 193.07 570.923 193.463 571.349 193.73C571.778 193.997 572.257 194.131 572.785 194.131C573.313 194.131 573.791 193.997 574.217 193.73C574.646 193.463 574.985 193.07 575.235 192.55C575.488 192.03 575.615 191.392 575.615 190.636ZM580.937 195.136C580.323 195.136 579.795 194.991 579.352 194.702C578.909 194.412 578.568 194.013 578.329 193.504C578.09 192.996 577.971 192.415 577.971 191.761C577.971 191.097 578.093 190.51 578.338 190.001C578.585 189.49 578.928 189.091 579.369 188.804C579.812 188.514 580.329 188.369 580.92 188.369C581.38 188.369 581.795 188.455 582.164 188.625C582.534 188.795 582.836 189.034 583.072 189.341C583.308 189.648 583.454 190.006 583.511 190.415H582.505C582.428 190.116 582.258 189.852 581.994 189.622C581.732 189.389 581.38 189.273 580.937 189.273C580.545 189.273 580.201 189.375 579.906 189.58C579.613 189.781 579.384 190.067 579.22 190.436C579.058 190.803 578.977 191.233 578.977 191.727C578.977 192.233 579.056 192.673 579.215 193.048C579.377 193.423 579.605 193.714 579.897 193.922C580.193 194.129 580.539 194.233 580.937 194.233C581.198 194.233 581.436 194.188 581.649 194.097C581.862 194.006 582.042 193.875 582.19 193.705C582.338 193.534 582.443 193.33 582.505 193.091H583.511C583.454 193.477 583.313 193.825 583.089 194.135C582.867 194.442 582.573 194.686 582.207 194.868C581.843 195.047 581.42 195.136 580.937 195.136ZM587.828 188.455V189.307H584.436V188.455H587.828ZM585.424 186.886H586.43V193.125C586.43 193.409 586.471 193.622 586.553 193.764C586.639 193.903 586.747 193.997 586.877 194.045C587.011 194.091 587.151 194.114 587.299 194.114C587.41 194.114 587.501 194.108 587.572 194.097C587.643 194.082 587.7 194.071 587.742 194.062L587.947 194.966C587.879 194.991 587.784 195.017 587.661 195.043C587.539 195.071 587.384 195.085 587.197 195.085C586.913 195.085 586.634 195.024 586.362 194.902C586.092 194.78 585.867 194.594 585.688 194.344C585.512 194.094 585.424 193.778 585.424 193.398V186.886Z" fill="#475467"/>
<path d="M636.066 186.273V195H635.043L630.288 188.148H630.203V195H629.146V186.273H630.168L634.941 193.142H635.026V186.273H636.066ZM640.704 195.136C640.113 195.136 639.594 194.996 639.148 194.714C638.705 194.433 638.358 194.04 638.108 193.534C637.861 193.028 637.738 192.437 637.738 191.761C637.738 191.08 637.861 190.484 638.108 189.976C638.358 189.467 638.705 189.072 639.148 188.791C639.594 188.51 640.113 188.369 640.704 188.369C641.294 188.369 641.812 188.51 642.255 188.791C642.701 189.072 643.047 189.467 643.294 189.976C643.544 190.484 643.669 191.08 643.669 191.761C643.669 192.437 643.544 193.028 643.294 193.534C643.047 194.04 642.701 194.433 642.255 194.714C641.812 194.996 641.294 195.136 640.704 195.136ZM640.704 194.233C641.152 194.233 641.522 194.118 641.812 193.888C642.101 193.658 642.316 193.355 642.455 192.98C642.594 192.605 642.664 192.199 642.664 191.761C642.664 191.324 642.594 190.916 642.455 190.538C642.316 190.161 642.101 189.855 641.812 189.622C641.522 189.389 641.152 189.273 640.704 189.273C640.255 189.273 639.885 189.389 639.596 189.622C639.306 189.855 639.091 190.161 638.952 190.538C638.813 190.916 638.743 191.324 638.743 191.761C638.743 192.199 638.813 192.605 638.952 192.98C639.091 193.355 639.306 193.658 639.596 193.888C639.885 194.118 640.255 194.233 640.704 194.233ZM650.323 188.455L647.902 195H646.879L644.459 188.455H645.55L647.357 193.67H647.425L649.232 188.455H650.323Z" fill="#475467"/>
<path d="M694.094 195H691.401V186.273H694.213C695.06 186.273 695.784 186.447 696.386 186.797C696.989 187.143 697.45 187.642 697.771 188.293C698.092 188.94 698.253 189.716 698.253 190.619C698.253 191.528 698.091 192.311 697.767 192.967C697.443 193.621 696.972 194.124 696.352 194.476C695.733 194.825 694.98 195 694.094 195ZM692.457 194.062H694.026C694.747 194.062 695.345 193.923 695.82 193.645C696.294 193.366 696.648 192.97 696.881 192.456C697.114 191.942 697.23 191.33 697.23 190.619C697.23 189.915 697.115 189.308 696.885 188.8C696.655 188.288 696.311 187.896 695.854 187.624C695.396 187.348 694.827 187.21 694.145 187.21H692.457V194.062ZM702.634 195.136C702.003 195.136 701.459 194.997 701.001 194.719C700.547 194.438 700.196 194.045 699.949 193.543C699.705 193.037 699.582 192.449 699.582 191.778C699.582 191.108 699.705 190.517 699.949 190.006C700.196 189.491 700.54 189.091 700.98 188.804C701.423 188.514 701.94 188.369 702.531 188.369C702.872 188.369 703.209 188.426 703.541 188.54C703.874 188.653 704.176 188.838 704.449 189.094C704.722 189.347 704.939 189.682 705.101 190.099C705.263 190.517 705.344 191.031 705.344 191.642V192.068H700.298V191.199H704.321C704.321 190.83 704.247 190.5 704.099 190.21C703.955 189.92 703.747 189.692 703.477 189.524C703.21 189.357 702.895 189.273 702.531 189.273C702.131 189.273 701.784 189.372 701.491 189.571C701.202 189.767 700.979 190.023 700.822 190.338C700.666 190.653 700.588 190.991 700.588 191.352V191.932C700.588 192.426 700.673 192.845 700.844 193.189C701.017 193.53 701.257 193.79 701.564 193.969C701.871 194.145 702.227 194.233 702.634 194.233C702.898 194.233 703.136 194.196 703.349 194.122C703.565 194.045 703.751 193.932 703.908 193.781C704.064 193.628 704.185 193.437 704.27 193.21L705.241 193.483C705.139 193.812 704.967 194.102 704.726 194.352C704.484 194.599 704.186 194.793 703.831 194.932C703.476 195.068 703.077 195.136 702.634 195.136ZM709.533 195.136C708.919 195.136 708.391 194.991 707.947 194.702C707.504 194.412 707.163 194.013 706.925 193.504C706.686 192.996 706.567 192.415 706.567 191.761C706.567 191.097 706.689 190.51 706.933 190.001C707.18 189.49 707.524 189.091 707.964 188.804C708.408 188.514 708.925 188.369 709.516 188.369C709.976 188.369 710.391 188.455 710.76 188.625C711.129 188.795 711.432 189.034 711.668 189.341C711.903 189.648 712.05 190.006 712.107 190.415H711.101C711.024 190.116 710.854 189.852 710.589 189.622C710.328 189.389 709.976 189.273 709.533 189.273C709.141 189.273 708.797 189.375 708.501 189.58C708.209 189.781 707.98 190.067 707.815 190.436C707.653 190.803 707.572 191.233 707.572 191.727C707.572 192.233 707.652 192.673 707.811 193.048C707.973 193.423 708.2 193.714 708.493 193.922C708.788 194.129 709.135 194.233 709.533 194.233C709.794 194.233 710.031 194.188 710.244 194.097C710.457 194.006 710.638 193.875 710.786 193.705C710.933 193.534 711.038 193.33 711.101 193.091H712.107C712.05 193.477 711.909 193.825 711.685 194.135C711.463 194.442 711.169 194.686 710.803 194.868C710.439 195.047 710.016 195.136 709.533 195.136Z" fill="#475467"/>
<mask id="mask0_1719_454819" style="mask-type:alpha" maskUnits="userSpaceOnUse" x="1" y="25" width="736" height="147">
<rect width="736" height="147" transform="translate(1 25)" fill="url(#paint0_linear_1719_454819)"/>
</mask>
<g mask="url(#mask0_1719_454819)">
<path opacity="0.1" d="M715.971 34.4539C726.486 34.4539 726.486 22.3959 737 22.3959V172H1V99.4811C12.3904 99.4811 11.5143 103.917 22.0286 103.917C32.5428 103.917 32.5428 91.3204 43.0571 91.3204C53.5714 91.3204 51.819 95.1962 64.0857 95.1962C76.3524 95.1962 72.8476 102.453 85.1143 102.453C97.3809 102.453 94.7523 99.6964 106.143 99.6964C117.533 99.6964 115.343 86.5618 127.171 86.5618C139 86.5618 135.933 90.8467 148.2 90.8467C160.467 90.8467 158.276 96.7465 169.229 96.7465C180.181 96.7465 178.429 77.1522 190.257 77.1522C202.086 77.1522 200.771 83.9348 211.286 83.9348C221.8 83.9348 220.048 74.4392 232.314 74.4392C244.581 74.4392 241.952 80.5112 253.343 80.5112C264.733 80.5112 262.981 55.6846 274.371 55.6846C285.762 55.6846 283.571 62.5965 295.4 62.5965C307.229 62.5965 304.162 67.1613 316.429 67.1613C328.695 67.1613 325.629 55.3186 337.457 55.3186C349.286 55.3186 346.219 61.1323 358.486 61.1323C370.752 61.1323 368.562 51.5504 379.514 51.5504C390.467 51.5504 389.152 35.5305 400.543 35.5305C411.933 35.5305 410.181 62.3381 421.571 62.3381C432.962 62.3381 431.648 43.562 442.6 43.562C453.552 43.562 451.362 51.7873 463.629 51.7873C475.895 51.7873 473.267 59.1728 484.657 59.1728C496.048 59.1728 494.733 46.9426 505.686 46.9426C516.638 46.9426 515.762 58.5699 526.714 58.5699C537.667 58.5699 536.352 53.4022 547.743 53.4022C559.133 53.4022 557.381 42.7438 568.771 42.7438C580.162 42.7438 578.41 47.0072 589.8 47.0072C601.19 47.0072 600.314 31.4394 610.829 31.4394C621.343 31.4394 619.59 52.7778 631.857 52.7778C644.124 52.7778 641.057 38.2866 652.886 38.2866C664.714 38.2866 662.962 44.251 673.914 44.251C684.867 44.251 683.99 29.3938 694.943 29.3938C705.895 29.3938 705.457 34.4539 715.971 34.4539Z" fill="#7F56D9"/>
</g>
<path d="M737 22.3959C726.486 22.3959 726.486 34.4539 715.971 34.4539C705.457 34.4539 705.895 29.3938 694.943 29.3938C683.99 29.3938 684.867 44.251 673.914 44.251C662.962 44.251 664.714 38.2866 652.886 38.2866C641.057 38.2866 644.124 52.7778 631.857 52.7778C619.59 52.7778 621.343 31.4394 610.829 31.4394C600.314 31.4394 601.19 47.0072 589.8 47.0072C578.41 47.0072 580.162 42.7438 568.771 42.7438C557.381 42.7438 559.133 53.4022 547.743 53.4022C536.352 53.4022 537.667 58.5699 526.714 58.5699C515.762 58.5699 516.638 46.9426 505.686 46.9426C494.733 46.9426 496.048 59.1728 484.657 59.1728C473.267 59.1728 475.895 51.7873 463.629 51.7873C451.362 51.7873 453.552 43.562 442.6 43.562C431.648 43.562 432.962 62.3381 421.571 62.3381C410.181 62.3381 411.933 35.5305 400.543 35.5305C389.152 35.5305 390.467 51.5504 379.514 51.5504C368.562 51.5504 370.752 61.1323 358.486 61.1323C346.219 61.1323 349.286 55.3186 337.457 55.3186C325.629 55.3186 328.695 67.1613 316.429 67.1613C304.162 67.1613 307.229 62.5965 295.4 62.5965C283.571 62.5965 285.762 55.6846 274.371 55.6846C262.981 55.6846 264.733 80.5112 253.343 80.5112C241.952 80.5112 244.581 74.4392 232.314 74.4392C220.048 74.4392 221.8 83.9348 211.286 83.9348C200.771 83.9348 202.086 77.1522 190.257 77.1522C178.429 77.1522 180.181 96.7465 169.229 96.7465C158.276 96.7465 160.467 90.8467 148.2 90.8467C135.933 90.8467 139 86.5618 127.171 86.5618C115.343 86.5618 117.533 99.6964 106.143 99.6964C94.7523 99.6964 97.3809 102.453 85.1143 102.453C72.8476 102.453 76.3524 95.1962 64.0857 95.1962C51.819 95.1962 53.5714 91.3204 43.0571 91.3204C32.5429 91.3204 32.5429 103.917 22.0286 103.917C11.5143 103.917 12.3905 99.4811 0.999981 99.4811" stroke="#7F56D9" stroke-width="2" stroke-linecap="round" stroke-linejoin="round"/>
<path d="M737 84.2084C726.486 84.2084 726.486 89.5703 715.971 89.5703C705.457 89.5703 705.895 90.2794 694.943 90.2794C683.99 90.2794 684.867 93.9269 673.914 93.9269C662.962 93.9269 664.714 91.2746 652.886 91.2746C641.057 91.2746 644.124 97.7185 631.857 97.7185C619.59 97.7185 621.343 92.6686 610.829 92.6686C600.314 92.6686 601.19 95.1524 589.8 95.1524C578.41 95.1524 580.162 93.2566 568.771 93.2566C557.381 93.2566 559.133 97.9962 547.743 97.9962C536.352 97.9962 537.667 100.294 526.714 100.294C515.762 100.294 516.638 95.1237 505.686 95.1237C494.733 95.1237 496.048 88.7254 484.657 88.7254C473.267 88.7254 475.895 97.2781 463.629 97.2781C451.362 97.2781 453.552 93.6205 442.6 93.6205C431.648 93.6205 429.818 95.5938 421.571 96.0513C413.37 96.5063 411.933 95.9675 400.543 95.9675C389.152 95.9675 390.467 97.1727 379.514 97.1727C368.562 97.1727 370.752 101.434 358.486 101.434C346.219 101.434 349.286 98.8483 337.457 98.8483C325.629 98.8483 328.695 104.115 316.429 104.115C304.162 104.115 307.229 102.085 295.4 102.085C283.571 102.085 285.762 99.0111 274.371 99.0111C262.981 99.0111 264.733 104.132 253.343 104.132C241.952 104.132 244.581 107.351 232.314 107.351C220.048 107.351 219.105 108.344 211.286 111.573C202.177 115.335 202.086 126.313 190.257 126.313C178.429 126.313 177.793 119.562 169.229 117.27C161.196 115.121 160.467 114.647 148.2 114.647C135.933 114.647 139 112.741 127.171 112.741C115.343 112.741 117.533 118.582 106.143 118.582C94.7523 118.582 97.3809 119.808 85.1143 119.808C72.8476 119.808 76.3524 116.581 64.0857 116.581C51.819 116.581 53.5714 114.857 43.0571 114.857C32.5429 114.857 32.5429 120.459 22.0286 120.459C11.5143 120.459 12.3905 118.486 0.999981 118.486" stroke="#B692F6" stroke-width="2" stroke-linecap="round" stroke-linejoin="round"/>
<defs>
<linearGradient id="paint0_linear_1719_454819" x1="368" y1="0" x2="368" y2="147" gradientUnits="userSpaceOnUse">
<stop/>
<stop offset="1" stop-opacity="0"/>
</linearGradient>
</defs>
</svg>
